<mxfile host="65bd71144e">
    <diagram id="X4KfBj7a_ixlQjmS_sFy" name="Page-1">
        <mxGraphModel dx="487" dy="335" grid="0" gridSize="10" guides="1" tooltips="1" connect="1" arrows="1" fold="1" page="1" pageScale="1" pageWidth="850" pageHeight="1100" background="none" math="0" shadow="0">
            <root>
                <mxCell id="0"/>
                <mxCell id="1" parent="0"/>
                <mxCell id="7" value="" style="ellipse;shape=doubleEllipse;whiteSpace=wrap;html=1;aspect=fixed;rounded=0;shadow=0;glass=0;labelBackgroundColor=#FFFF66;labelBorderColor=none;sketch=0;strokeWidth=6;fontSize=100;fontColor=#000066;fillColor=#FFFFFF;gradientColor=none;gradientDirection=east;dashed=1;dashPattern=1 2;strokeColor=none;" vertex="1" parent="1">
                    <mxGeometry x="242" y="66" width="170" height="170" as="geometry"/>
                </mxCell>
                <mxCell id="2" value="&lt;font style=&quot;font-size: 100px;&quot;&gt;S&lt;/font&gt;" style="text;strokeColor=none;align=center;fillColor=none;html=1;verticalAlign=middle;whiteSpace=wrap;rounded=0;strokeWidth=6;fontColor=#990000;" vertex="1" parent="1">
                    <mxGeometry x="260" y="90" width="90" height="80" as="geometry"/>
                </mxCell>
                <mxCell id="3" value="&lt;font style=&quot;font-size: 100px;&quot;&gt;C&lt;/font&gt;" style="text;strokeColor=none;align=center;fillColor=none;html=1;verticalAlign=middle;whiteSpace=wrap;rounded=0;strokeWidth=6;shadow=0;fontColor=#000066;labelBorderColor=none;glass=0;sketch=1;curveFitting=1;jiggle=2;" vertex="1" parent="1">
                    <mxGeometry x="292" y="128" width="110" height="100" as="geometry"/>
                </mxCell>
            </root>
        </mxGraphModel>
    </diagram>
</mxfile>